<svg xmlns="http://www.w3.org/2000/svg" id="Layer_1" height="512" viewBox="0 0 128 128" width="512" data-name="Layer 1"><path d="m79.142 53.643a11.28 11.28 0 1 0 -11.279-11.28 11.293 11.293 0 0 0 11.279 11.28zm0-19.059a7.78 7.78 0 1 1 -7.779 7.779 7.789 7.789 0 0 1 7.779-7.78z"></path><path d="m112.5 110.75h-19.1v-39.186l5.127 2.716a1.75 1.75 0 0 0 1.639-3.093l-13.751-7.282v-.289a22.393 22.393 0 0 0 2.612-1.083l3.967 3.967a1.749 1.749 0 0 0 2.475 0l7.811-7.811a1.749 1.749 0 0 0 0-2.475l-3.967-3.967a22.359 22.359 0 0 0 1.083-2.612h5.604a1.75 1.75 0 0 0 1.75-1.75v-11.045a1.75 1.75 0 0 0 -1.75-1.75h-5.6a22.359 22.359 0 0 0 -1.083-2.612l3.967-3.967a1.749 1.749 0 0 0 0-2.475l-7.811-7.811a1.8 1.8 0 0 0 -2.475 0l-3.967 3.967a22.552 22.552 0 0 0 -2.612-1.083v-5.609a1.75 1.75 0 0 0 -1.75-1.75h-11.05a1.75 1.75 0 0 0 -1.75 1.75v5.609a22.382 22.382 0 0 0 -2.612 1.083l-3.967-3.967a1.749 1.749 0 0 0 -2.475 0l-7.815 7.811a1.75 1.75 0 0 0 0 2.475l3.968 3.967a22.319 22.319 0 0 0 -1.083 2.612h-5.606a1.75 1.75 0 0 0 -1.75 1.75v11.046a1.75 1.75 0 0 0 1.75 1.75h5.609a22.319 22.319 0 0 0 1.083 2.612l-3.971 3.967a1.751 1.751 0 0 0 -.387.594l-26.782 14.374a1.75 1.75 0 1 0 1.654 3.084l5.083-2.728v39.211h-19.068a1.75 1.75 0 0 0 0 3.5h97a1.75 1.75 0 0 0 0-3.5zm-50.141-56.939a1.75 1.75 0 0 0 .284-2.1 18.84 18.84 0 0 1 -1.778-4.288 1.749 1.749 0 0 0 -1.687-1.284h-5.149v-7.549h5.149a1.749 1.749 0 0 0 1.687-1.284 18.84 18.84 0 0 1 1.778-4.288 1.75 1.75 0 0 0 -.284-2.1l-3.644-3.642 5.337-5.336 3.648 3.64a1.75 1.75 0 0 0 2.1.285 18.812 18.812 0 0 1 4.287-1.778 1.75 1.75 0 0 0 1.282-1.687v-5.15h7.546v5.15a1.75 1.75 0 0 0 1.285 1.687 18.809 18.809 0 0 1 4.288 1.778 1.75 1.75 0 0 0 2.1-.285l3.643-3.643 5.336 5.336-3.643 3.643a1.751 1.751 0 0 0 -.284 2.1 18.84 18.84 0 0 1 1.778 4.288 1.749 1.749 0 0 0 1.687 1.284h5.149v7.546h-5.149a1.749 1.749 0 0 0 -1.687 1.284 18.84 18.84 0 0 1 -1.778 4.288 1.751 1.751 0 0 0 .284 2.1l3.643 3.643-5.336 5.335-3.643-3.642a1.752 1.752 0 0 0 -2.1-.285 18.842 18.842 0 0 1 -4.288 1.782 1.75 1.75 0 0 0 -1.284 1.687v5.15h-7.547v-5.15a1.75 1.75 0 0 0 -1.284-1.687 18.835 18.835 0 0 1 -4.285-1.778 1.752 1.752 0 0 0 -2.1.285l-3.643 3.643-5.337-5.336zm-24.291 15.85 18.162-9.746 6.585 6.585a1.749 1.749 0 0 0 2.475 0l3.967-3.967a22.393 22.393 0 0 0 2.612 1.083v5.61a1.75 1.75 0 0 0 1.75 1.75h11.046a1.75 1.75 0 0 0 1.75-1.75v-1.36l3.485 1.844v41.04h-14.711v-17.9a1.75 1.75 0 0 0 -1.75-1.75h-18.915a1.75 1.75 0 0 0 -1.75 1.75v17.9h-14.706zm33.621 41.089h-15.415v-16.15h15.415z"></path></svg>